<svg xmlns="http://www.w3.org/2000/svg" viewBox="0 0 380 320"><ellipse cx="190" cy="283" rx="133" ry="12" fill="#19212d" opacity=".07"/><g stroke="#4a5360" stroke-width="2" stroke-linejoin="round"><path d="M141 245v22h100v-22" stroke="#a7afba" stroke-width="10"/><rect x="117" y="61" width="170" height="183" rx="4" fill="#9aa4b1"/><path d="M119 70h165" stroke="#d8dfe6"/><path d="M119 82h165" stroke="#d8dfe6"/><path d="M119 94h165" stroke="#d8dfe6"/><path d="M119 106h165" stroke="#d8dfe6"/><path d="M119 118h165" stroke="#d8dfe6"/><path d="M119 130h165" stroke="#d8dfe6"/><path d="M119 142h165" stroke="#d8dfe6"/><path d="M119 154h165" stroke="#d8dfe6"/><path d="M119 166h165" stroke="#d8dfe6"/><path d="M119 178h165" stroke="#d8dfe6"/><path d="M119 190h165" stroke="#d8dfe6"/><path d="M119 202h165" stroke="#d8dfe6"/><path d="M119 214h165" stroke="#d8dfe6"/><path d="M119 226h165" stroke="#d8dfe6"/><path d="M119 238h165" stroke="#d8dfe6"/><rect x="81" y="76" width="158" height="158" rx="12" fill="#272e39"/><circle cx="160" cy="155" r="65" fill="#535e6f" stroke="#c6d9f2"/><circle cx="160" cy="155" r="18" fill="#c6d9f2"/><path d="M160 133q-45-44 5-33" transform="rotate(0 160 155)" stroke="#c6d9f2" stroke-width="9"/><path d="M160 133q-45-44 5-33" transform="rotate(60 160 155)" stroke="#c6d9f2" stroke-width="9"/><path d="M160 133q-45-44 5-33" transform="rotate(120 160 155)" stroke="#c6d9f2" stroke-width="9"/><path d="M160 133q-45-44 5-33" transform="rotate(180 160 155)" stroke="#c6d9f2" stroke-width="9"/><path d="M160 133q-45-44 5-33" transform="rotate(240 160 155)" stroke="#c6d9f2" stroke-width="9"/><path d="M160 133q-45-44 5-33" transform="rotate(300 160 155)" stroke="#c6d9f2" stroke-width="9"/></g></svg>