<svg xmlns="http://www.w3.org/2000/svg" viewBox="0 0 380 320"><ellipse cx="190" cy="283" rx="133" ry="12" fill="#19212d" opacity=".07"/><g stroke="#4a5360" stroke-width="2" stroke-linejoin="round"><path d="M47 221h278v12H47z" fill="#c8ac5f"/><rect x="32" y="95" width="322" height="127" rx="16" fill="#222630"/><path d="M53 110h283" stroke="#ccf16b" stroke-width="7"/><circle cx="92" cy="165" r="40" fill="#40474f" stroke="#ccf16b"/><circle cx="92" cy="165" r="12" fill="#ccf16b"/><path d="M92 151q-24-35 3-24" transform="rotate(0 92 165)" stroke="#ccf16b" stroke-width="5"/><path d="M92 151q-24-35 3-24" transform="rotate(60 92 165)" stroke="#ccf16b" stroke-width="5"/><path d="M92 151q-24-35 3-24" transform="rotate(120 92 165)" stroke="#ccf16b" stroke-width="5"/><path d="M92 151q-24-35 3-24" transform="rotate(180 92 165)" stroke="#ccf16b" stroke-width="5"/><path d="M92 151q-24-35 3-24" transform="rotate(240 92 165)" stroke="#ccf16b" stroke-width="5"/><path d="M92 151q-24-35 3-24" transform="rotate(300 92 165)" stroke="#ccf16b" stroke-width="5"/><circle cx="194" cy="165" r="40" fill="#40474f" stroke="#ccf16b"/><circle cx="194" cy="165" r="12" fill="#ccf16b"/><path d="M194 151q-24-35 3-24" transform="rotate(0 194 165)" stroke="#ccf16b" stroke-width="5"/><path d="M194 151q-24-35 3-24" transform="rotate(60 194 165)" stroke="#ccf16b" stroke-width="5"/><path d="M194 151q-24-35 3-24" transform="rotate(120 194 165)" stroke="#ccf16b" stroke-width="5"/><path d="M194 151q-24-35 3-24" transform="rotate(180 194 165)" stroke="#ccf16b" stroke-width="5"/><path d="M194 151q-24-35 3-24" transform="rotate(240 194 165)" stroke="#ccf16b" stroke-width="5"/><path d="M194 151q-24-35 3-24" transform="rotate(300 194 165)" stroke="#ccf16b" stroke-width="5"/><circle cx="294" cy="165" r="40" fill="#40474f" stroke="#ccf16b"/><circle cx="294" cy="165" r="12" fill="#ccf16b"/><path d="M294 151q-24-35 3-24" transform="rotate(0 294 165)" stroke="#ccf16b" stroke-width="5"/><path d="M294 151q-24-35 3-24" transform="rotate(60 294 165)" stroke="#ccf16b" stroke-width="5"/><path d="M294 151q-24-35 3-24" transform="rotate(120 294 165)" stroke="#ccf16b" stroke-width="5"/><path d="M294 151q-24-35 3-24" transform="rotate(180 294 165)" stroke="#ccf16b" stroke-width="5"/><path d="M294 151q-24-35 3-24" transform="rotate(240 294 165)" stroke="#ccf16b" stroke-width="5"/><path d="M294 151q-24-35 3-24" transform="rotate(300 294 165)" stroke="#ccf16b" stroke-width="5"/></g></svg>